<?xml version="1.0" encoding="utf-8"?>
<!DOCTYPE svg PUBLIC "-//W3C//DTD SVG 1.0//EN" "http://www.w3.org/TR/2001/REC-SVG-20010904/DTD/svg10.dtd">
<svg version="1.0" xmlns="http://www.w3.org/2000/svg" width="550px" height="150px" viewBox="0 0 550 150" preserveAspectRatio="xMidYMid meet">
 <g fill="#ffffff">
  <path d="M0 75 l0 -75 275 0 275 0 0 75 0 75 -275 0 -275 0 0 -75z m104.5 60.6 c0.6 -0.2 -0.9 -0.5 -3.2 -0.7 -3 -0.3 -4.4 0 -5.1 1.2 -1 1.5 -0.6 1.6 3.1 0.7 2.3 -0.5 4.7 -1 5.2 -1.2z m26 -7.1 c17 -5.5 27.9 -11.1 33.2 -16.8 5.7 -6.2 6.3 -9 3.1 -14.7 -3.5 -6.3 -12.4 -13.2 -30.6 -23.5 -19.3 -10.9 -29.7 -17.8 -31.8 -21 -2.2 -3.4 -2.9 -9.6 -1.4 -13.9 1.3 -4.2 7 -9.3 14.5 -13.3 3 -1.5 5.2 -2.9 5 -3.1 -0.6 -0.6 -8.8 3.9 -13.8 7.5 -5.3 3.9 -9.7 10.6 -9.7 14.7 0 8.5 8.2 15.4 40.9 34.2 9.1 5.3 17.3 10.9 20.2 13.7 4.7 4.6 4.9 5 4.9 10.4 0 5.1 -0.3 5.8 -3.7 9.1 -4.9 4.6 -20.3 11.9 -37.3 17.7 -7.4 2.5 -11.9 4.2 -10 3.9 1.9 -0.3 9.4 -2.5 16.5 -4.9z m200.8 2.3 c1.1 -0.9 1.5 -2.1 1.1 -3.5 -0.6 -2.2 -1.1 -2.3 -9.9 -2.3 -12.9 0 -12.5 0.6 -12.5 -18.9 0 -11.8 0.3 -16.2 1.4 -17.6 1.1 -1.6 3 -2 11 -2.3 l9.7 -0.4 -0.3 -2.7 c-0.3 -2.4 -0.8 -2.7 -6.2 -3.5 -7.3 -1.1 -16.4 0.4 -20.6 3.4 -5.6 4 -6.4 7 -6.5 22.5 0 12 0.3 14.6 2 18 3.1 6.2 8.6 8.5 20 8.5 5.7 0 9.7 -0.5 10.8 -1.2z m59.4 0.4 c1 -0.6 -0.5 -6.9 -6.1 -25.8 l-7.4 -24.9 -9.3 0 -9.4 0 -6.7 22.5 c-9.2 30.9 -8.9 28 -3.4 28 l4.6 0 1.2 -4.5 1.2 -4.6 12 0.3 12 0.3 1.5 4 c0.8 2.2 2 4.3 2.5 4.7 1.4 1 5.8 1 7.3 0z m45.5 -1.5 c3.3 -2.2 5.8 -8.4 5.8 -14 0 -8.8 -4 -12.3 -16.1 -14.1 -4.6 -0.6 -9 -1.5 -9.7 -2 -1.6 -0.9 -1.6 -10.8 0 -12.4 0.8 -0.8 4.9 -1.2 12 -1.2 10.8 0 10.8 0 10.8 -2.4 0 -1.5 -0.7 -2.7 -1.8 -3 -3.5 -1.1 -20.8 -1 -24.3 0.2 -7.2 2.5 -10.2 8.6 -8.8 18 1 7 3.9 9 14.8 10.7 5.1 0.7 9.9 1.9 10.7 2.6 1.6 1.3 1.9 8.1 0.4 11 -1 1.7 -2.2 1.9 -13 1.9 l-12 0 0 2.9 c0 3.8 0.8 4 16 3.8 10.1 -0.2 13 -0.6 15.2 -2z m63.6 -18.7 c0.2 -11.3 0 -22.9 -0.3 -25.7 l-0.6 -5.3 -5 0 -4.9 0 0 4.4 c0 2.3 -0.3 7.1 -0.6 10.5 l-0.7 6.2 -9.6 -0.3 -9.6 -0.3 -0.3 -10.2 -0.3 -10.3 -5.4 0 -5.5 0 0 25.5 0 25.5 5.5 0 5.5 0 0 -8.9 c0 -4.9 0.3 -9.6 0.6 -10.5 0.5 -1.3 2.4 -1.6 10.5 -1.6 l9.9 0 0 11.1 0 11 5.3 -0.3 5.2 -0.3 0.3 -20.5z"/>
  <path d="M359.2 110.3 c0.3 -2.7 1.5 -8.5 2.8 -13 2.2 -8.3 2.2 -8.3 5.5 -8.3 2.3 0 3.5 0.5 3.9 1.8 2.8 9.3 4.6 17.3 4.6 20.4 l0 3.8 -8.6 0 -8.7 0 0.5 -4.7z"/>
 </g>
 <g fill="#77c52c">
  <path d="M88 142.4 c0 -1.2 32.8 -55.4 33.5 -55.4 0.5 0 -2.8 7.3 -9 20.6 -2.6 5.4 -6.3 13.2 -8.1 17.2 l-3.4 7.4 3.2 -0.7 c7.9 -1.7 31.1 -10 40.3 -14.4 11.3 -5.4 17.5 -10.5 17.5 -14.4 0 -4.4 -8.4 -11.4 -25.1 -21.1 -29.9 -17.2 -38.5 -24 -40.8 -32.2 -1.6 -5.7 -1.4 -7.4 1.5 -13.3 4.7 -9.3 19.1 -17.7 40.6 -23.6 11.2 -3 24.9 -5.7 25.6 -5.1 0.2 0.3 -5.1 10.9 -11.9 23.5 -6.7 12.7 -12.4 22.9 -12.6 22.7 -0.2 -0.2 2.9 -8.5 6.8 -18.5 4 -9.9 7 -18.3 6.7 -18.7 -1 -0.9 -21.6 6.4 -29.7 10.6 -9.6 5 -14.9 9.4 -16.8 13.8 -1.2 3 -1.2 3.7 0.4 7 2.2 4.6 8.5 9 30.7 21.7 24.8 14.1 31.9 20.2 34.6 29.5 2.4 8.3 -4.3 17.6 -17.4 24.2 -10.8 5.4 -27.7 10.9 -48.5 15.8 -19.3 4.4 -18.1 4.2 -18.1 3.4z"/>
  <path d="M85 139.4 c0 -1.4 5.1 -8.6 5.7 -8.1 0.6 0.7 -2.2 6.1 -4.1 7.6 -0.9 0.8 -1.6 0.9 -1.6 0.5z"/>
  <path d="M312.4 134.9 c-12.6 -1.2 -16.3 -6 -17.1 -22.3 -1.5 -28.5 2.5 -35.4 21.5 -36.3 4.8 -0.2 10.7 0 13.2 0.4 l4.5 0.8 0.3 6 0.3 6 -9.6 0 c-12.6 0 -12.5 -0.1 -12.5 16.4 0 6.9 0.5 13.3 1 14.1 0.7 1.1 3.6 1.6 11.2 2 l10.3 0.5 0.3 5.2 c0.3 4.2 0 5.3 -1.5 6.1 -2.4 1.3 -14.2 1.9 -21.9 1.1z"/>
  <path d="M380.4 134.2 c-0.5 -0.4 -1.7 -2.5 -2.5 -4.7 l-1.5 -4 -9 -0.3 -9 -0.3 -1.2 4.6 -1.2 4.5 -8.5 0 c-4.7 0 -8.5 -0.2 -8.5 -0.4 0 -1.5 16.3 -55.2 16.9 -55.9 0.4 -0.4 6.1 -0.6 12.6 -0.5 l11.8 0.3 8.2 28 c8.1 27.4 8.2 28 6.1 28.7 -3 0.9 -12.9 0.9 -14.2 0z m-7.4 -23 c0 -1.2 -4.8 -18.4 -5.3 -18.8 -0.3 -0.3 -1.4 3.2 -2.6 7.8 -1.2 4.6 -2.5 9.1 -2.7 10.1 -0.5 1.5 0.2 1.7 5 1.7 3.1 0 5.6 -0.3 5.6 -0.8z"/>
  <path d="M403.8 134.4 c-1.5 -0.5 -1.8 -1.7 -1.8 -6.5 l0 -5.9 12 0 c11.9 0 12.1 0 13.2 -2.5 1.8 -4 -0.5 -5.4 -11.3 -7 -8.2 -1.2 -9.7 -1.8 -12 -4.3 -4.8 -5.4 -4.7 -21.5 0.1 -26.7 3.8 -4 8.4 -5 21.8 -4.8 16.4 0.3 16.2 0.2 16.2 6.9 l0 5.4 -10.8 0 c-11.4 0 -13.2 0.6 -13.2 4.6 0 3.1 1.1 3.6 10.9 5 13.1 2 16.1 5.1 16.1 17.1 0 8.5 -2 14.4 -5.8 17 -2.3 1.5 -5.1 1.8 -18.2 2 -8.5 0.1 -16.3 -0.1 -17.2 -0.3z"/>
  <path d="M486 124 l0 -11 -6.9 0 c-5.4 0 -7 0.4 -7.5 1.6 -0.3 0.9 -0.6 5.6 -0.6 10.5 l0 8.9 -8.5 0 -8.5 0 0 -28.5 0 -28.5 8.5 0 8.4 0 0.3 10.3 0.3 10.2 6.6 0.3 6.6 0.3 0.7 -6.2 c0.3 -3.4 0.6 -8.2 0.6 -10.5 l0 -4.4 7.9 0 8 0 0.6 5.3 c0.3 2.8 0.5 15.8 0.3 28.7 l-0.3 23.5 -8.2 0.3 -8.3 0.3 0 -11.1z"/>
  <path d="M121.2 110.3 c2 -3.4 5.5 -6 6.5 -4.9 0.4 0.3 -0.2 1.5 -1.2 2.6 -3.9 4.3 1.8 0.8 6.1 -3.7 3.9 -4.1 4.3 -4.3 9.3 -4.1 4.2 0.2 4.9 0.5 3.7 1.4 -0.9 0.6 -1.6 1.6 -1.6 2.1 0 1.4 -3.4 4.3 -5 4.3 -0.9 0 -0.8 -0.6 0.5 -2 2.1 -2.3 1.6 -2.5 -2 -0.8 -1.4 0.6 -2.5 1.9 -2.5 2.9 0 3.3 -4.8 6 -10.5 5.8 l-5.3 -0.2 2 -3.4z m8.8 0.2 c1.6 -1.9 0.3 -1.9 -3 0 -2.4 1.3 -2.4 1.4 -0.4 1.5 1.2 0 2.7 -0.7 3.4 -1.5z"/>
  <path d="M70.5 67 c1.7 -0.4 9.9 -1.3 18.4 -2 15.1 -1.2 15.4 -1.1 17.5 0.9 l2 2.1 -20.4 -0.1 c-12.4 0 -19.3 -0.4 -17.5 -0.9z"/>
  <path d="M62.5 59 c1.7 -0.4 9.9 -1.3 18.3 -2 11.9 -0.9 15.6 -0.9 16.7 0 0.8 0.7 1.2 1.6 0.9 2.1 -0.3 0.5 -9.2 0.9 -19.7 0.8 -11.7 0 -18 -0.4 -16.2 -0.9z"/>
  <path d="M49.2 50.5 c0.4 -0.4 7.8 -1.4 16.5 -2.1 8.7 -0.7 18.3 -1.6 21.4 -1.9 5.1 -0.6 5.7 -0.5 6.2 1.4 0.5 2 0.2 2.1 -12.1 2.1 -7 0 -17.2 0.3 -22.7 0.6 -5.5 0.4 -9.7 0.3 -9.3 -0.1z"/>
  <path d="M121.1 49.1 c-0.8 -0.5 -2.1 -0.7 -3 -0.4 -1.3 0.5 -1.4 0.3 -0.3 -0.8 0.6 -0.7 1.2 -2 1.2 -2.9 0 -2.2 3.6 -5.4 5 -4.5 0.8 0.5 0.6 1.3 -0.7 2.7 -1.7 1.9 -1.7 1.9 1 0.7 1.5 -0.7 3 -2.3 3.3 -3.6 0.9 -3.4 5.6 -5.5 10.2 -4.7 2 0.4 3.1 0.9 2.5 1.1 -0.7 0.3 -1.3 1.2 -1.3 2.2 0 2.1 -1.9 4.1 -3.8 4.1 -0.9 0 -1.2 -0.6 -0.8 -1.5 0.4 -1.3 0.2 -1.4 -1.4 -0.5 -1.1 0.6 -2 1.9 -2 3 0 3.2 -7.1 6.8 -9.9 5.1z m5.4 -3.2 c1.1 -1.7 0 -2 -2.1 -0.4 -1.7 1.3 -1.7 1.4 -0.2 1.5 0.9 0 2 -0.5 2.3 -1.1z"/>
  <path d="M160 20.5 c0 -1.4 3.2 -6.5 4 -6.5 1.3 0 1.3 0.6 -0.5 4 -1.3 2.6 -3.5 4.1 -3.5 2.5z"/>
 </g>
 <g fill="#5593a1">
  <path d="M78.6 134.3 c9.5 -13.4 33.4 -45.3 34 -45.3 0.7 0 -3.1 6.7 -14.2 25.2 -11.1 18.3 -11 18.3 -9 17.5 2 -0.8 2 -0.4 0.2 3.2 -2.1 4 -3.5 4.8 -10 5.5 l-5.8 0.6 4.8 -6.7z"/>
  <path d="M271 75 c-1.1 -0.7 -0.5 -5 3.5 -23.7 4.7 -22.5 6.5 -27.6 8.7 -24.2 1 1.4 1.4 1.4 4.7 -0.3 4.7 -2.5 15.1 -2 18.3 0.8 1.8 1.7 2 2.7 1.5 9.9 -0.6 9.5 -2.9 17.4 -6.1 21.2 -2.1 2.5 -3.2 2.8 -9.8 3.1 -5.6 0.3 -8.3 0 -10.7 -1.3 -1.8 -0.9 -3.4 -1.5 -3.6 -1.3 -0.1 0.2 -1 3.8 -1.9 8 -1.8 8.2 -2.4 9.2 -4.6 7.8z m26.9 -19.4 c2.4 -2.5 4.6 -9.6 5.6 -18.1 0.6 -4.7 0.5 -5.4 -1.6 -6.9 -3.1 -2.1 -8.4 -2 -13.5 0.3 -5 2.3 -7.4 7.4 -8.2 17.5 -0.6 8.5 0.4 9.6 9.3 9.6 5.2 0 6.5 -0.4 8.4 -2.4z"/>
  <path d="M349.1 62 c-7.9 -1.2 -9.6 -6 -6.6 -18.6 2.3 -9.9 4.4 -14.3 7.7 -16 7 -3.6 20.6 -2.5 22.9 1.8 0.7 1.3 0.9 4.2 0.5 7.4 -1 8.7 -0.5 8.4 -12 8.5 -14.1 0.1 -15 0.5 -15.4 5.8 -0.5 6.4 0.6 7.1 11.4 7.1 7.5 0 9.4 0.3 9.4 1.4 0 0.8 -0.3 1.7 -0.7 1.9 -1.7 0.9 -13 1.4 -17.2 0.7z m18.7 -21.2 c0.7 -0.7 1.2 -3.1 1.2 -5.5 0 -5.2 -1 -5.8 -9.3 -5.7 -4.5 0.1 -6.3 0.6 -8.1 2.3 -2.7 2.6 -3.9 7 -2.4 8.9 1.4 1.6 16.9 1.7 18.6 0z"/>
  <path d="M421.5 62.1 c-3.7 -0.4 -5.1 -1.1 -5.3 -2.3 -0.3 -1.6 0.6 -1.8 9.1 -1.8 8.5 0 9.6 -0.2 11.5 -2.3 2.7 -2.9 3 -8.3 0.5 -9.1 -1 -0.3 -4.5 -0.8 -7.8 -1.1 -9.8 -1.1 -11.5 -3.1 -9.9 -11.4 1.1 -5.2 4.7 -7.9 11.9 -8.6 6.8 -0.8 13.6 0.3 14.2 2.2 0.3 0.7 -2.5 1.2 -8.5 1.4 -10.8 0.5 -13.5 2.1 -13 7.8 l0.3 3.5 8.5 1.3 c11.1 1.8 11.8 2.4 9.9 10.4 -1 4.5 -2.1 6.7 -3.9 7.9 -2.9 2.1 -10.3 2.9 -17.5 2.1z"/>
  <path d="M192.6 61.1 c-0.7 -1 7.8 -42.1 9.4 -45.9 1 -2.2 1.2 -2.2 15.7 -2 12.4 0.3 14.8 0.5 14.8 1.8 0 1.2 -2.3 1.6 -13 2 l-13 0.5 -1.2 3.7 c-0.7 2 -1.5 6 -1.9 8.8 l-0.7 5 10.5 0 c5.8 0 10.7 0.3 11.1 0.6 0.3 0.3 0.3 1.2 0 2 -0.4 1.1 -2.9 1.4 -10.7 1.4 -5.5 0 -10.7 0.4 -11.3 0.8 -0.7 0.4 -2 4.3 -2.9 8.6 -1.3 6.6 -1.4 8 -0.2 8.7 0.7 0.5 6.4 0.9 12.6 0.9 10.3 0 11.3 0.2 11 1.8 -0.3 1.5 -1.9 1.7 -15 2 -8.5 0.1 -14.9 -0.1 -15.2 -0.7z"/>
  <path d="M231 61 c0 -0.6 3.6 -4.8 8.1 -9.5 l8.1 -8.4 -4.5 -8 c-2.5 -4.4 -4.2 -8.2 -3.9 -8.5 1.8 -1.8 4.1 0 7.5 5.9 2.1 3.6 4 6.5 4.4 6.5 0.3 0 3.7 -2.9 7.4 -6.5 3.9 -3.8 7.6 -6.5 8.8 -6.5 1.2 0 2.1 0.3 2.1 0.7 0 0.4 -3.6 4.4 -8 8.8 l-7.9 8 4.8 8.7 c4.6 8.2 4.8 8.8 2.9 9.4 -1.3 0.4 -2.4 0.1 -2.9 -0.7 -0.5 -0.8 -2.5 -4.2 -4.6 -7.7 l-3.7 -6.3 -7.6 7.6 c-6.8 6.8 -11 9.2 -11 6.5z"/>
  <path d="M315.7 60.5 c-0.6 -1.5 4.7 -28.3 6.3 -32.3 1.1 -2.5 4 -3 4 -0.7 0 1.9 0.2 1.9 5 -0.6 4.2 -2.2 7 -2 7 0.5 0 0.9 -1.6 1.9 -3.8 2.6 -6.7 1.7 -8.9 5.2 -12.2 19 -2.4 10 -3.5 13 -4.9 13 -0.5 0 -1.1 -0.7 -1.4 -1.5z"/>
  <path d="M380 60.1 c0 -1.8 0.7 -2 9.6 -1.8 9 0.2 9.7 0.1 11.5 -2.2 2.2 -2.7 2.5 -8.6 0.5 -9.4 -0.8 -0.3 -4.3 -0.9 -7.8 -1.3 -8 -0.8 -10.8 -2.5 -10.8 -6.5 0 -3.8 2.2 -8.9 4.8 -11.2 3.8 -3.4 22.2 -3.5 22.2 -0.1 0 1.1 -1.8 1.4 -8.4 1.4 -7 0 -8.8 0.3 -11 2.1 -2.2 1.7 -2.6 2.8 -2.4 5.7 l0.3 3.6 8.4 1.3 c4.6 0.7 9 1.8 9.8 2.4 2.8 2.4 0.7 12.7 -3.4 15.9 -2.2 1.7 -4 2 -12.9 2 -9.6 0 -10.4 -0.1 -10.4 -1.9z"/>
  <path d="M149.3 50.5 c2.4 -5.5 6.3 -14.2 8.7 -19.3 3.3 -7.1 4.1 -9.5 3.1 -10.1 -1 -0.7 -1 -1.5 0.3 -3.9 1.3 -2.5 2.4 -3.2 6.1 -3.8 2.5 -0.3 4.8 -0.4 5.2 -0.1 0.5 0.6 -22.5 40.5 -26 44.9 -0.9 1.3 0.2 -2.2 2.6 -7.7z"/>
 </g>
<g opacity="0.5" transform="rotate(-45, 275.0, 75.0)">
</g>
</svg>