<svg width="24" height="32" viewBox="0 0 24 32" fill="none" xmlns="http://www.w3.org/2000/svg">
<path d="M7.36 0.810857C7.936 0.586475 8.832 0.297983 9.36 0.169765C10 0.0255192 10.992 -0.0225628 12.4 0.00949187C13.872 0.0575738 14.768 0.169765 15.44 0.394147C15.968 0.55442 16.864 0.923048 17.44 1.21154C18.016 1.50003 18.8 1.98085 19.2 2.26934C19.6 2.55783 20.288 3.1829 20.736 3.64769C21.184 4.12851 21.792 4.91385 22.096 5.39467C22.416 5.87549 22.848 6.70891 23.088 7.23781C23.312 7.76671 23.616 8.71232 23.76 9.32136C23.888 9.94642 24 11.1966 24 12.1261C24 13.1198 23.904 14.1937 23.76 14.7706C23.616 15.2995 23.232 16.3093 22.896 17.0145C22.56 17.7197 21.632 19.2743 20.848 20.4603C20.048 21.6464 18.096 24.4992 16.512 26.7911C14.912 29.083 13.408 31.1826 13.168 31.4711C12.8 31.9038 12.608 31.984 12.048 32C11.552 32 11.248 31.9038 10.976 31.6474C10.752 31.439 9.056 29.083 7.184 26.3904C5.312 23.6979 3.328 20.8129 2.784 19.9795C2.24 19.1461 1.504 17.8799 1.152 17.1747C0.8 16.4695 0.4 15.4598 0.256 14.9309C0.112 14.3539 0 13.2801 0 12.2544C0 11.2607 0.112 10.0266 0.256 9.36944C0.384 8.72835 0.848 7.47822 1.28 6.59672C1.856 5.39467 2.32 4.70549 3.136 3.80796C3.744 3.16687 4.704 2.31742 5.28 1.93277C5.856 1.56414 6.784 1.05127 7.36 0.810857Z" fill="white"/>
<path d="M7.83996 1.70842C8.31996 1.51609 9.15196 1.25965 9.67996 1.13143C10.32 0.987189 11.248 0.939107 12.4 0.971162C13.504 1.01924 14.512 1.16349 15.12 1.35582C15.648 1.51609 16.624 1.9328 17.28 2.26937C18.112 2.71814 18.88 3.29512 19.776 4.19265C20.832 5.23443 21.2 5.7473 21.824 6.99743C22.224 7.83085 22.672 9.01687 22.8 9.64194C22.928 10.251 23.04 11.3729 23.04 12.1262C23.04 12.8795 22.928 13.9212 22.8 14.4501C22.672 14.979 22.272 15.9888 21.936 16.694C21.584 17.3992 20.384 19.3224 19.248 20.9893C18.128 22.6401 16.08 25.5731 14.72 27.5284C12.784 30.2851 12.176 31.0544 11.936 31.0063C11.744 30.9743 10.48 29.3235 8.60796 26.6309C6.94396 24.2588 4.94396 21.3739 4.19196 20.22C3.42396 19.066 2.49596 17.5594 2.12796 16.8542C1.75996 16.149 1.34396 15.1072 1.21596 14.5303C1.07196 13.9533 0.959961 12.8955 0.959961 12.1582C0.959961 11.437 1.07196 10.3151 1.21596 9.69002C1.35996 9.04893 1.77596 7.87893 2.15996 7.07757C2.63996 6.08387 3.16796 5.29854 3.87196 4.52922C4.41596 3.92019 5.34396 3.11882 5.91996 2.75019C6.49596 2.36554 7.35996 1.90075 7.83996 1.70842Z" fill="#FCD34D"/>
<path d="M8.51231 8.48798C8.91231 8.08729 9.61631 7.63853 10.1603 7.39812C10.7523 7.15771 11.4403 6.99744 11.9523 6.99744C12.4323 6.99744 13.2003 7.14168 13.7123 7.33401C14.3523 7.57442 14.8963 7.94305 15.4563 8.504C16.0163 9.06496 16.3843 9.60989 16.6403 10.283C16.9123 11.0203 16.9763 11.4691 16.9123 12.2063C16.8803 12.7352 16.6723 13.5526 16.4643 14.0334C16.2403 14.5142 15.7603 15.1874 15.3603 15.572C14.9603 15.9407 14.2403 16.3894 13.7123 16.5818C13.2163 16.7741 12.4323 16.9344 12.0003 16.9344C11.5523 16.9344 10.7843 16.7741 10.2723 16.5978C9.64831 16.3574 9.10431 15.9888 8.54431 15.4278C7.98431 14.8668 7.61631 14.3219 7.36031 13.6488C7.08831 12.9115 7.02431 12.4627 7.08831 11.7255C7.12031 11.1966 7.31231 10.4113 7.50431 9.96249C7.68031 9.52975 8.14431 8.8566 8.51231 8.48798Z" fill="white"/>
</svg>
